<?xml version="1.0" encoding="utf-8"?>
<!-- Svg Vector Icons : http://www.onlinewebfonts.com/icon -->
<!DOCTYPE svg PUBLIC "-//W3C//DTD SVG 1.1//EN" "http://www.w3.org/Graphics/SVG/1.1/DTD/svg11.dtd">
<svg version="1.1" xmlns="http://www.w3.org/2000/svg" xmlns:xlink="http://www.w3.org/1999/xlink" x="0px" y="0px" viewBox="0 0 1000 1000" enable-background="new 0 0 1000 1000" xml:space="preserve">
<metadata> Svg Vector Icons : http://www.onlinewebfonts.com/icon </metadata>
<g><g transform="matrix(1 0 0 -1 0 1920)"><path d="M73.9,930c-11.6,0-21.7,4.2-30,12.6c-8.4,8.4-12.6,18.4-12.6,30v894.8c0,11.6,4.2,21.7,12.6,30c8.4,8.4,18.4,12.6,30,12.6h170.4v-213h511.3v213h42.6l170.4-170.4v-767c0-11.6-4.2-21.7-12.6-30c-8.4-8.4-18.4-12.6-30-12.6H73.9z M627.8,1739.6V1910H713v-170.4H627.8z M159.1,1015.2h681.7v383.5H159.1V1015.2z"/></g></g>
</svg>